<svg xmlns="http://www.w3.org/2000/svg" width="300" height="42" viewBox="0 0 300 42" fill="none"><g clip-path="url(#clip0_322_302)"><path d="M43.0647 0H0V42H43.0647V0Z" fill="#040006"></path><path d="M1.74333 1.70609L1.62522 40.1755V40.2452H41.1926L41.3107 1.70609H1.74333ZM38.078 8.99818L38.0036 32.0838L26.2976 20.9199L38.078 8.99818ZM15.3451 20.7505L15.2931 20.8004L32.4736 37.4446H29.5267L12.4005 20.8549L12.345 20.7992L12.3935 20.7447L12.4336 20.7122L12.4643 20.675L29.2173 4.47878H32.1701L15.3451 20.7505ZM35.9709 37.4446L18.9534 20.9536L19.2309 20.6739L19.2109 20.653L35.9402 4.47878H38.893L21.931 20.8839L21.8802 20.9338L38.9249 37.4446H35.9709ZM9.00129 17.8466V4.49271H11.0741V15.8434L13.695 13.311V4.47878H15.7679V11.3089L18.7207 8.27628V4.49271H22.8026L22.8204 4.47878H25.8381L21.9038 8.27628H21.8554L8.77806 20.9199L21.481 33.5984L21.501 33.6193H21.6014L22.7389 34.7427V34.8588L25.3255 37.4411H22.4188L22.3751 37.3994H18.6805V33.7168L15.7667 30.8002V37.3112H13.6939V28.732L11.0741 26.1113V37.4005H9.00129V24.0431L6.5859 21.6256V37.4005H4.50714V4.49967H6.5859V20.1818L9.00129 17.8466ZM25.2109 40.2382L25.1471 40.1755H25.2653L25.2109 40.2382Z" fill="#24944E"></path><path d="M92.3184 2.41522H82.0462L66.6161 18.9214V2.41522H58.9885V39.5848H66.6161V28.3652L72.8324 22.1269L83.2368 39.5848H93.1121L78.0789 16.8845L92.3184 2.41522Z" fill="#040006"></path><path d="M112.002 1.76992C108.915 1.76992 106.182 2.24693 103.852 3.24273C102.044 3.97972 100.413 5.0997 98.9575 6.57947C97.4739 8.05542 96.2785 9.78629 95.4307 11.6861C94.285 14.2395 93.7121 17.4485 93.7121 21.217C93.7121 27.1524 95.3433 31.7878 98.6492 35.1664C102 38.546 106.453 40.2347 112.096 40.2347C117.647 40.2347 122.104 38.546 125.41 35.1281C128.761 31.7484 130.392 27.07 130.392 21.0487C130.392 14.9834 128.716 10.2613 125.366 6.88239C122.009 3.45512 117.557 1.76992 112.002 1.76992ZM119.584 30.5796C117.601 32.7453 115.088 33.8293 112.09 33.8293C109.004 33.8293 106.491 32.7465 104.508 30.5796C102.567 28.3745 101.555 25.2072 101.555 20.9617C101.555 16.6733 102.524 13.5106 104.464 11.3879C106.36 9.26511 108.917 8.18227 112.091 8.18227C115.221 8.18227 117.735 9.22101 119.631 11.3438C121.526 13.4236 122.496 16.6292 122.496 20.8747C122.495 25.2025 121.525 28.4081 119.584 30.575V30.5796Z" fill="#040006"></path><path d="M154.974 2.97811C153.563 2.58931 150.521 2.41522 145.891 2.41522H133.636V39.5848H141.263V25.5496H146.245C149.682 25.5496 152.328 25.3763 154.181 25.0296C155.607 24.6942 156.954 24.0908 158.148 23.2527C159.427 22.3869 160.484 21.1741 161.366 19.6142C162.204 18.0544 162.601 16.1046 162.601 13.8518C162.601 10.9062 161.892 8.48055 160.44 6.61777C158.942 4.71206 157.135 3.49807 154.974 2.97811ZM153.871 16.8415C153.286 17.6736 152.456 18.3089 151.491 18.6614C150.477 19.0513 148.449 19.2243 145.451 19.2243H141.263V8.69758H144.967C147.7 8.69758 149.551 8.78346 150.433 8.95755C151.62 9.14863 152.707 9.72861 153.517 10.6033C154.31 11.4703 154.751 12.5961 154.751 13.9389C154.764 14.9718 154.457 15.9842 153.871 16.8415Z" fill="#040006"></path><path d="M190.329 26.2854C189.226 25.1596 187.86 24.1201 186.229 23.1668C189.536 22.6898 192.048 21.5641 193.724 19.7442C195.355 17.9244 196.193 15.6287 196.193 12.8131C196.193 10.6462 195.664 8.69758 194.562 6.96363C193.46 5.27495 192.005 4.06212 190.153 3.41218C188.301 2.71582 185.392 2.41522 181.336 2.41522H165.244V39.5848H172.914V24.0768H174.458C176.222 24.0768 177.5 24.2064 178.293 24.4656C179.165 24.8128 179.948 25.3459 180.586 26.0266C181.336 26.8065 182.658 28.6263 184.601 31.4814L190.153 39.5825H199.279L194.649 32.3484C192.848 29.4481 191.387 27.4553 190.329 26.2854ZM178.556 18.1414H172.913V8.69758H178.866C181.951 8.69758 183.801 8.74091 184.417 8.82757C185.651 9.04344 186.621 9.52393 187.326 10.3004C187.988 11.0362 188.341 12.0761 188.341 13.2889C188.341 14.4159 188.076 15.3687 187.547 16.1046C187.031 16.8347 186.291 17.3834 185.435 17.6702C184.509 17.9673 182.218 18.1414 178.556 18.1414Z" fill="#040006"></path><path d="M223.161 22.9928C223.161 25.9384 223.029 28.0182 222.807 29.3181C222.587 30.575 221.926 31.6137 220.824 32.4807C219.721 33.3906 218.09 33.8235 215.929 33.8235C213.814 33.8235 212.094 33.3465 210.86 32.4378C209.674 31.5097 208.849 30.2096 208.523 28.7552C208.347 27.8023 208.258 25.7225 208.258 22.5599V2.41522H200.632V22.2616C200.632 26.42 200.852 29.5397 201.382 31.6625C201.69 33.1353 202.445 34.4781 203.497 35.8209C204.599 37.1208 206.054 38.1607 207.95 38.9836C209.802 39.8065 212.535 40.2394 216.15 40.2394C219.148 40.2394 221.573 39.8494 223.425 39.1136C225.277 38.3336 226.776 37.3367 227.878 36.0809C229.023 34.781 229.767 33.2653 230.17 31.4025C230.611 29.5827 230.787 26.42 230.787 21.9587V2.41522H223.16L223.161 22.9928Z" fill="#040006"></path><path d="M255.353 31.9178C253.897 33.1736 252.134 33.8235 250.106 33.8235C247.373 33.8235 245.124 32.8266 243.404 30.7909C241.686 28.8411 240.806 25.4625 240.806 20.7841C240.806 16.322 241.688 13.116 243.452 11.1662C245.171 9.17343 247.467 8.17763 250.284 8.17763C252.269 8.17763 254.032 8.74052 255.444 9.86631C256.855 10.9921 257.78 12.509 258.22 14.4159L265.803 12.639C264.966 9.69338 263.643 7.3977 261.924 5.79142C259.058 3.10462 255.266 1.7618 250.638 1.7618C245.347 1.7618 241.071 3.49458 237.808 6.91721C234.546 10.3398 232.915 15.1482 232.915 21.3435C232.915 27.1918 234.546 31.789 237.808 35.1629C241.027 38.5426 245.171 40.2312 250.197 40.2312C254.253 40.2312 257.604 39.2354 260.248 37.2856C262.894 35.2929 264.79 32.2602 265.892 28.2329L258.485 25.9361C257.866 28.6252 256.808 30.6609 255.353 31.9178Z" fill="#040006"></path><path d="M292.374 2.41522V17.0145H277.384V2.41522H269.756V39.5848H277.384V23.3398H292.374V39.5848H300V2.41522H292.374Z" fill="#040006"></path></g><defs><clipPath id="clip0_322_302"><rect width="300" height="42" fill="white"></rect></clipPath></defs></svg>